<?xml version="1.0" standalone="no"?>
<!DOCTYPE svg PUBLIC "-//W3C//DTD SVG 20010904//EN"
 "http://www.w3.org/TR/2001/REC-SVG-20010904/DTD/svg10.dtd">
<svg version="1.0" xmlns="http://www.w3.org/2000/svg"
 width="1200.000000pt" height="1200.000000pt" viewBox="0 0 1200.000000 1200.000000"
 preserveAspectRatio="xMidYMid meet">
<metadata>
Created by potrace 1.14, written by Peter Selinger 2001-2017
</metadata>
<g transform="translate(0.000000,1200.000000) scale(0.100000,-0.100000)"
fill="#000000" stroke="none">
<path d="M7695 11558 c-281 -62 -439 -186 -570 -448 -48 -94 -77 -123 -125
-123 -16 0 -93 32 -172 71 -170 85 -321 141 -478 175 -152 34 -193 39 -335 42
-453 10 -776 -191 -905 -565 -12 -36 -24 -76 -26 -90 -3 -14 -7 -31 -9 -38
-25 -69 -25 -375 -1 -475 22 -93 21 -107 -6 -107 -75 0 -547 -139 -767 -225
-213 -83 -588 -265 -642 -311 -8 -8 -19 -14 -22 -14 -11 0 -269 -161 -287
-180 -3 -3 -20 -13 -38 -23 l-33 -19 5 26 c5 28 0 30 -109 42 -121 15 -107 28
-131 -130 l-22 -140 -43 -38 c-63 -55 -99 -81 -99 -70 0 4 7 32 16 61 8 29 16
66 16 82 1 17 4 32 8 34 3 2 6 30 5 62 -2 32 1 82 5 111 4 29 4 55 0 57 -16
10 -209 32 -265 31 -36 -1 -66 3 -75 11 -9 7 -47 14 -85 15 l-68 3 -37 -190
c-33 -169 -72 -375 -84 -445 -3 -14 -19 -95 -36 -180 -17 -85 -33 -168 -36
-185 -27 -167 -47 -243 -75 -283 -16 -23 -29 -47 -29 -51 0 -5 -4 -11 -9 -13
-13 -5 -115 -167 -206 -328 -131 -231 -220 -424 -326 -705 -40 -108 -102 -313
-138 -452 l-37 -148 -39 -6 c-22 -4 -58 -10 -80 -13 -91 -15 -275 -86 -374
-145 -162 -98 -284 -214 -386 -367 -71 -106 -143 -263 -160 -347 -2 -9 -6 -21
-9 -25 -2 -4 -7 -28 -11 -52 -3 -25 -10 -59 -15 -77 -4 -17 -7 -98 -5 -180 2
-151 16 -236 56 -363 94 -294 322 -557 605 -699 71 -35 182 -78 224 -86 8 -2
34 -8 57 -14 23 -6 45 -11 50 -10 4 2 28 -1 53 -5 38 -6 93 -12 136 -15 6 -1
28 -49 49 -109 70 -203 140 -368 248 -582 126 -249 118 -187 62 -536 -19 -115
-37 -230 -40 -255 -3 -24 -12 -84 -21 -134 -22 -129 -22 -130 -43 -261 -31
-191 -45 -294 -39 -299 2 -3 106 -19 229 -35 123 -16 242 -33 264 -36 22 -3
59 -7 82 -9 24 -2 47 -7 53 -10 5 -3 10 2 11 12 0 10 2 25 3 33 2 8 7 56 10
105 4 50 9 113 12 140 3 28 7 70 8 95 14 184 19 236 25 243 4 4 34 -23 67 -60
309 -354 777 -731 1199 -968 87 -49 307 -160 375 -189 36 -16 79 -34 95 -42
167 -73 443 -167 655 -222 170 -45 497 -108 507 -98 3 3 13 1 22 -3 14 -8 47
-12 206 -26 278 -26 622 -26 895 1 432 41 987 180 1335 334 22 10 74 32 115
50 275 120 634 332 894 528 56 42 103 78 106 81 3 4 21 18 40 33 36 27 46 36
160 136 132 116 353 343 459 472 30 36 57 67 60 70 4 3 20 23 36 45 17 22 32
42 35 45 4 3 31 39 61 80 283 384 508 808 656 1235 25 72 47 132 49 134 1 2
34 5 72 6 419 17 787 234 1000 589 35 58 99 197 107 231 1 5 4 17 8 25 50 136
65 402 32 577 -68 362 -299 674 -625 842 -145 75 -258 109 -448 135 -19 3 -35
6 -37 8 -1 2 -10 37 -20 78 -162 694 -507 1379 -973 1933 -41 48 -72 90 -69
93 5 6 28 8 147 19 221 19 485 105 685 222 192 113 376 303 482 498 58 106
117 272 137 385 3 19 9 46 12 60 13 55 12 359 -2 432 -8 40 -16 84 -19 98 -9
49 -43 156 -70 225 -35 86 -62 137 -130 240 -181 273 -523 504 -883 594 -123
31 -138 33 -327 36 -159 3 -194 0 -300 -21 -248 -50 -446 -193 -605 -437 -51
-78 -59 -86 -73 -73 -13 13 -13 23 -2 71 28 120 10 261 -47 354 -30 48 -122
145 -178 186 -92 67 -234 128 -350 150 -56 10 -251 13 -295 3z m-2343 -2021
c28 -32 49 -60 47 -61 -2 -2 -58 -13 -124 -25 -112 -20 -187 -37 -344 -75
-118 -30 -405 -129 -498 -171 -17 -8 -34 -15 -37 -15 -31 0 -527 -261 -534
-281 -2 -5 -8 -9 -14 -9 -5 0 -70 -40 -144 -90 -73 -49 -135 -86 -137 -82 -3
4 -3 15 -1 25 1 11 5 57 8 103 13 194 15 207 44 232 91 76 501 292 722 380
230 92 392 145 600 197 131 33 155 39 230 51 19 3 37 7 38 9 2 2 24 -27 49
-63 25 -37 68 -93 95 -125z m138 -136 c177 -148 393 -241 620 -267 132 -15
166 -61 140 -193 -20 -104 -67 -274 -120 -431 -80 -238 -92 -285 -87 -352 8
-106 59 -146 317 -247 141 -55 484 -163 590 -186 129 -28 194 -57 256 -112 17
-15 43 -37 57 -47 14 -11 24 -23 22 -26 -4 -7 -44 -5 -65 3 -8 4 -26 8 -40 10
-14 2 -32 6 -40 9 -8 3 -51 14 -95 23 -91 19 -370 96 -460 127 -171 57 -321
116 -415 161 -58 27 -120 53 -139 58 -57 13 -132 -27 -153 -81 -5 -14 -27
-119 -48 -235 -22 -115 -43 -232 -49 -259 -22 -115 16 -232 93 -288 145 -106
602 -266 1061 -372 180 -42 496 -102 580 -111 33 -3 67 -8 75 -10 18 -5 66
-11 145 -20 33 -4 71 -8 85 -10 272 -40 734 -51 941 -21 129 18 210 107 235
256 2 14 7 36 10 50 6 25 42 233 49 281 3 15 8 45 14 67 23 103 -1 170 -72
205 -33 17 -49 18 -145 9 -104 -9 -546 -8 -627 2 -22 3 -67 8 -100 11 -33 3
-96 10 -140 15 -44 6 -98 13 -120 16 -87 10 -99 15 -83 31 8 8 30 17 49 20 19
3 41 8 49 12 33 17 220 19 480 7 335 -16 531 -6 604 31 58 29 97 90 99 152 1
40 -13 235 -19 266 -12 62 -5 195 9 174 1 -2 37 -44 78 -94 138 -165 280 -364
391 -550 60 -101 238 -457 238 -476 0 -8 4 -19 9 -25 30 -32 200 -558 186
-573 -4 -4 -4721 -5 -5456 -2 l-147 1 12 42 13 42 79 2 c114 2 179 12 260 39
205 69 394 229 552 469 53 81 152 271 186 356 78 197 150 449 176 615 6 39 13
81 16 95 11 46 12 384 3 445 -5 33 -11 72 -14 87 -30 195 -155 415 -293 518
-101 75 -187 110 -331 135 -97 17 -165 38 -154 48 3 4 1 7 -5 7 -7 0 -12 4
-12 9 0 11 148 52 330 90 182 38 232 48 245 47 6 -1 40 -26 75 -55z m-1056
-235 c-3 -8 -12 -17 -20 -20 -8 -3 -14 -12 -14 -20 0 -8 -3 -16 -7 -18 -5 -1
-21 -23 -37 -47 -36 -56 -37 -57 -118 -144 -77 -84 -178 -211 -178 -225 0 -6
-4 -12 -9 -14 -5 -1 -31 -39 -58 -83 -145 -237 -260 -534 -317 -815 -103 -514
1 -897 308 -1136 l40 -30 -38 -102 -39 -102 -211 -1 c-277 -1 -489 1 -493 5
-2 1 5 12 14 23 10 11 41 46 68 78 73 85 72 82 79 180 7 88 9 118 21 280 3 44
8 100 10 125 2 25 7 79 10 120 3 41 8 95 10 120 4 40 7 77 20 240 10 126 15
192 20 260 3 41 8 95 10 120 3 25 7 83 10 130 3 47 8 110 10 140 3 30 7 89 10
130 3 41 7 93 10 115 3 22 7 78 10 124 3 46 8 87 10 92 12 19 360 242 485 310
115 63 359 177 382 179 4 0 5 -6 2 -14z m-1073 -322 c-6 -33 -13 -79 -16 -104
-10 -70 -36 -234 -38 -236 -1 -1 -26 -22 -55 -48 -29 -25 -57 -46 -63 -46 -9
0 -8 43 6 140 2 14 7 52 10 85 3 33 8 69 10 80 2 11 4 34 4 52 1 27 11 40 72
88 40 30 74 54 76 51 2 -2 0 -30 -6 -62z m-407 -311 c-2 -10 -17 -106 -34
-213 -16 -107 -31 -204 -33 -215 -4 -26 -14 -43 -61 -98 -40 -48 -57 -53 -51
-14 4 26 13 108 20 192 3 33 8 76 10 95 2 19 7 61 11 92 6 53 10 61 67 117 65
64 78 72 71 44z m6227 -105 c95 -99 300 -350 394 -483 157 -221 343 -546 430
-750 116 -272 205 -530 245 -711 5 -22 12 -48 16 -57 6 -15 -8 -17 -140 -17
-109 0 -148 3 -150 13 -2 6 -18 64 -36 127 -61 222 -156 464 -266 684 -87 172
-95 185 -111 204 -7 7 -13 18 -13 23 0 30 -282 446 -352 520 -7 8 -31 36 -52
63 -22 26 -52 62 -68 80 -25 27 -28 37 -24 76 5 46 66 280 73 280 2 0 27 -24
54 -52z m-5881 24 c0 -10 -11 -85 -24 -167 -14 -83 -27 -170 -31 -195 -3 -25
-8 -52 -10 -60 -4 -14 -36 -199 -50 -285 -3 -22 -15 -80 -25 -130 -11 -49 -22
-106 -24 -125 -7 -54 -30 -113 -45 -118 -8 -3 -11 0 -8 5 4 6 9 61 12 124 4
105 11 194 21 294 2 22 6 69 9 105 3 36 8 76 11 88 3 13 7 54 9 90 6 88 14
162 19 187 3 11 5 35 5 54 1 27 12 45 59 92 61 63 72 69 72 41z m-786 -434
c-7 -50 -9 -65 -23 -138 -5 -30 -12 -68 -15 -85 -4 -28 -35 -187 -40 -210 -2
-5 -6 -23 -10 -40 -4 -16 -12 -51 -18 -77 -21 -86 -31 -41 -24 106 4 77 9 155
11 171 2 17 6 63 9 103 5 75 11 87 79 175 16 20 31 37 33 37 2 0 2 -19 -2 -42z
m352 -45 c-3 -32 -9 -69 -12 -83 -3 -14 -7 -38 -9 -55 -9 -66 -85 -423 -99
-465 -15 -43 -15 -37 -10 115 2 88 6 176 9 195 2 19 6 69 9 110 3 41 8 85 10
97 6 28 36 73 49 73 6 0 7 3 4 7 -6 6 40 63 51 63 2 0 1 -26 -2 -57z m-868
-880 c-15 -76 -31 -154 -34 -173 -3 -19 -9 -51 -13 -70 -11 -52 -7 -69 54
-189 l54 -109 -17 -69 -18 -68 -142 -3 c-86 -1 -142 1 -142 7 0 27 70 286 100
371 39 113 104 280 118 305 9 17 15 30 14 30 -2 0 7 24 19 53 12 28 25 52 29
52 3 0 -6 -62 -22 -137z m122 -676 c0 -5 -17 -7 -37 -5 -34 3 -38 6 -35 27 2
14 8 36 14 50 10 26 10 26 33 -19 13 -25 24 -49 25 -53z m-50 -2423 c4 -5 4
-34 -1 -64 -5 -30 -16 -100 -24 -155 -21 -134 -25 -159 -30 -163 -2 -3 -15 20
-29 49 -68 149 -138 337 -125 341 21 7 201 0 209 -8z m927 3 c3 -4 1 -17 -5
-30 -6 -12 -47 -116 -92 -232 -44 -115 -85 -219 -90 -230 -20 -44 -150 -386
-150 -395 0 -6 -6 -10 -12 -10 -16 0 -129 173 -130 198 -1 15 6 105 17 217 2
22 6 81 10 130 4 50 8 100 10 112 2 12 7 63 11 115 4 51 9 96 10 101 1 4 2 13
3 20 1 9 49 12 206 11 113 0 208 -4 212 -7z m6827 2 c5 -5 -71 -206 -94 -247
-17 -32 -70 -153 -70 -162 0 -5 -3 -10 -7 -12 -5 -1 -24 -34 -43 -73 -19 -38
-38 -72 -41 -75 -3 -3 -24 -39 -48 -80 -81 -144 -240 -377 -340 -496 -14 -17
-35 -42 -46 -55 -243 -298 -642 -646 -970 -846 -267 -162 -529 -289 -805 -389
-68 -24 -242 -80 -280 -89 -291 -69 -340 -80 -420 -90 -25 -3 -70 -10 -100
-14 -30 -5 -68 -9 -85 -10 -16 -1 -41 -3 -55 -6 -112 -23 -718 -23 -851 0 -13
2 -62 9 -109 15 -428 55 -825 174 -1238 371 -372 177 -786 468 -1078 757 -30
30 -52 57 -50 60 2 4 59 176 126 382 67 206 134 413 150 460 15 47 65 200 110
340 46 140 84 257 85 260 4 7 6252 6 6259 -1z m308 2 c16 -1 15 -8 -8 -73 -14
-40 -29 -82 -34 -93 -5 -11 -26 -60 -46 -110 -54 -136 -208 -441 -282 -560
-45 -73 -167 -260 -179 -275 -7 -8 -44 -58 -83 -110 -317 -426 -756 -824
-1220 -1107 -118 -72 -278 -154 -284 -145 -11 18 -61 3 -83 -24 -12 -16 -20
-30 -18 -32 10 -10 -271 -133 -428 -188 -120 -42 -333 -104 -359 -104 -17 0
-50 39 -47 56 1 5 1 11 -1 14 -1 3 -3 26 -5 51 -4 65 -12 84 -40 99 -35 19
-27 31 31 47 450 124 835 296 1209 541 142 93 351 254 470 361 55 50 301 297
350 352 164 183 329 414 493 689 47 79 202 402 238 495 21 55 43 105 49 110
10 8 171 11 277 6z m-7586 -796 c10 -19 22 -35 26 -35 5 0 8 -6 8 -13 0 -7 8
-22 19 -33 43 -47 43 -52 -15 -197 -30 -76 -54 -142 -54 -147 0 -21 -26 -9
-43 19 -9 15 -15 30 -13 32 2 2 7 47 10 99 4 52 9 120 13 150 6 64 11 118 12
143 2 27 16 20 37 -18z m646 -776 c51 -47 111 -101 133 -120 22 -19 42 -36 45
-39 14 -15 163 -132 225 -176 442 -317 897 -529 1411 -658 77 -19 153 -37 169
-40 17 -3 41 -8 55 -11 14 -2 36 -6 50 -9 14 -2 43 -7 65 -12 40 -7 68 -12 93
-13 6 -1 12 -7 12 -14 0 -7 11 -13 25 -13 14 0 25 4 25 9 0 5 10 6 23 3 12 -4
28 -8 35 -10 8 -1 29 -15 48 -29 26 -21 32 -24 28 -10 -5 17 -5 17 9 0 14 -17
15 -17 22 0 6 17 7 17 21 -1 10 -14 14 -16 14 -5 0 12 2 12 9 0 7 -11 33 -15
99 -15 61 -1 88 2 84 9 -4 6 1 3 10 -7 11 -12 19 -15 23 -7 5 7 10 8 18 0 7
-7 15 -7 26 2 14 11 14 10 2 -6 -15 -20 -2 -23 18 -4 11 9 13 9 7 0 -4 -7 -2
-13 3 -13 6 0 11 5 11 11 0 6 5 7 13 2 18 -11 40 -13 52 -4 16 13 335 3 335
-11 0 -4 11 -6 25 -4 13 3 27 1 30 -4 3 -4 13 -7 22 -6 48 7 78 -85 32 -99
-30 -10 -73 -18 -91 -17 -9 0 -22 -12 -28 -29 -9 -21 -19 -29 -39 -30 -14 0
-37 -3 -51 -6 -65 -14 -621 -5 -750 11 -14 2 -56 7 -95 11 -38 4 -79 9 -90 11
-10 2 -37 6 -60 9 -22 3 -74 12 -115 20 -41 9 -84 17 -95 19 -11 2 -60 14
-110 26 -49 12 -99 23 -109 25 -36 8 -201 56 -221 64 -11 5 -56 21 -100 36
-482 163 -967 439 -1385 789 -163 136 -188 163 -188 202 0 19 5 40 12 47 7 7
27 56 46 110 18 54 37 96 41 95 4 -2 49 -42 101 -89z"/>
<path d="M6600 3768 c-30 -4 -91 -26 -135 -47 -185 -91 -334 -309 -381 -556
-2 -11 -8 -42 -13 -68 -9 -53 -7 -321 3 -377 46 -238 137 -405 295 -543 77
-67 248 -123 341 -111 14 2 43 5 65 8 193 23 387 189 494 420 58 127 81 231
86 401 9 315 -113 599 -328 761 -129 98 -271 135 -427 112z m-24 -430 c3 -4
12 -4 19 -2 16 7 29 -12 15 -21 -6 -4 -17 -2 -24 4 -7 6 -17 7 -21 3 -5 -4 -5
-1 0 7 5 10 4 12 -4 7 -6 -4 -8 -13 -4 -19 4 -7 8 -15 8 -19 0 -3 4 -10 8 -15
5 -4 7 -1 5 7 -2 8 3 14 11 12 7 -1 19 3 27 9 8 6 14 8 14 4 0 -4 7 -2 15 5 8
7 15 9 15 4 0 -5 4 -3 9 5 11 17 55 -4 45 -22 -5 -9 -4 -9 6 0 11 10 11 15 -1
30 -13 16 -12 17 4 4 25 -20 21 -37 -13 -51 -16 -7 -30 -18 -30 -25 0 -8 -5
-15 -10 -17 -13 -4 -16 -45 -6 -79 5 -19 14 -26 32 -26 13 0 24 4 24 9 0 5 4
7 9 4 4 -3 19 3 31 14 12 11 26 17 31 14 5 -3 6 2 3 10 -4 11 0 16 11 16 9 0
13 4 10 10 -3 6 1 7 10 4 14 -6 14 -8 -2 -20 -14 -11 -14 -14 -3 -12 8 2 14
-3 13 -9 -2 -7 4 -13 12 -13 8 0 15 3 16 8 0 4 2 17 5 30 2 12 0 22 -5 22 -15
0 -19 39 -5 51 8 6 14 17 14 23 0 8 -3 7 -8 -1 -5 -8 -13 -9 -22 -3 -13 8 -12
10 3 11 9 1 22 3 27 4 6 1 12 3 15 4 10 2 20 -4 17 -12 -1 -5 1 -6 6 -3 12 7
67 -70 93 -131 41 -96 56 -258 35 -392 -23 -143 -120 -287 -233 -345 -48 -24
-139 -24 -195 2 -101 45 -195 187 -222 335 -5 27 -9 134 -6 152 1 6 1 30 0 55
-3 99 68 292 115 310 11 5 14 9 7 9 -7 1 -10 6 -7 12 4 6 14 8 22 5 8 -3 11
-1 8 4 -14 23 30 39 51 18z m67 -3 c-3 -9 -8 -14 -10 -11 -3 3 -2 9 2 15 9 16
15 13 8 -4z m136 -74 c17 -11 4 -34 -16 -27 -8 3 -11 2 -8 -3 3 -5 0 -13 -6
-17 -8 -5 -9 -3 -4 6 6 9 2 10 -16 5 -23 -7 -24 -7 -4 9 11 8 16 16 10 16 -5
0 -3 5 5 10 18 12 21 12 39 1z m-65 -67 c9 -22 8 -23 -13 -21 -14 1 -17 5 -11
13 6 6 7 14 3 17 -3 4 -2 7 4 7 6 0 14 -7 17 -16z"/>
<path d="M6424 2991 c-10 -17 -22 -27 -27 -24 -6 3 -7 1 -3 -5 4 -7 12 -12 18
-12 6 0 16 -7 22 -15 9 -12 11 -5 13 35 2 27 1 50 -2 50 -2 0 -12 -13 -21 -29z"/>
<path d="M5188 3739 c-229 -57 -432 -278 -508 -550 -52 -190 -46 -416 18 -594
58 -163 173 -320 301 -412 40 -27 140 -73 186 -83 226 -52 428 23 570 213 91
121 145 252 172 423 14 91 6 405 -12 434 -2 4 -7 21 -10 38 -15 86 -73 214
-137 302 -147 202 -357 286 -580 229z m219 -355 c134 -66 212 -225 218 -441 5
-191 -41 -330 -145 -435 -64 -63 -107 -80 -194 -77 -65 3 -119 27 -172 77
-215 204 -211 628 7 827 66 60 96 72 185 74 35 1 65 -6 101 -25z"/>
<path d="M7548 3673 c-4 -7 -2 -1462 1 -1517 1 -19 -1 -19 146 -1 17 2 50 6
75 9 110 12 166 19 185 22 10 2 37 6 60 9 223 32 432 159 538 327 76 120 106
230 108 393 4 288 -141 516 -408 641 -76 36 -213 72 -303 79 -30 3 -64 7 -75
9 -11 2 -49 7 -85 10 -36 4 -81 9 -100 11 -109 13 -139 15 -142 8z m517 -365
c125 -27 224 -107 266 -216 16 -42 23 -83 25 -159 4 -151 -23 -236 -102 -318
-71 -74 -165 -107 -341 -118 l-63 -5 0 420 0 420 83 -7 c45 -3 105 -11 132
-17z"/>
<path d="M4450 3646 c-3 -2 -32 -7 -65 -10 -33 -4 -67 -9 -75 -11 -8 -2 -46
-7 -85 -10 -38 -4 -72 -8 -75 -10 -3 -2 -30 -6 -60 -10 -30 -3 -62 -8 -70 -11
-9 -2 -34 -6 -55 -8 -22 -3 -94 -14 -160 -25 -66 -11 -123 -21 -128 -21 -4 0
-6 -277 -5 -617 l3 -616 64 -13 c36 -8 81 -16 100 -18 58 -8 105 -17 119 -21
9 -3 12 51 12 251 l0 256 242 -7 c134 -4 245 -7 248 -7 36 -3 36 -1 35 150 -1
81 -3 152 -3 158 -1 8 -27 10 -74 9 -40 -2 -156 -5 -258 -7 l-185 -3 -3 114
c-1 63 1 118 5 122 4 4 40 10 78 13 39 3 95 8 125 11 124 10 179 15 255 21 44
3 82 10 85 15 3 4 5 75 5 156 l0 148 -36 3 c-19 2 -37 1 -39 -2z"/>
<path d="M7878 1493 c7 -3 16 -2 19 1 4 3 -2 6 -13 5 -11 0 -14 -3 -6 -6z"/>
<path d="M5453 1300 c2 -8 14 -15 28 -15 13 0 27 -4 31 -10 5 -6 8 -5 8 3 0
10 5 10 20 2 14 -8 20 -8 20 0 0 13 -42 30 -55 22 -15 -10 -39 -8 -48 3 -5 6
-7 4 -4 -5z"/>
<path d="M5567 1292 c2 -10 12 -18 22 -18 11 0 17 6 14 13 -3 7 -9 10 -14 7
-5 -3 -9 0 -9 5 0 6 -4 11 -9 11 -5 0 -7 -8 -4 -18z"/>
<path d="M5930 1251 c0 -5 5 -13 10 -16 6 -3 10 -2 10 4 0 5 -4 13 -10 16 -5
3 -10 2 -10 -4z"/>
</g>
</svg>
